<?xml version="1.0" encoding="UTF-8"?>
<svg id="a" data-name="Pages" xmlns="http://www.w3.org/2000/svg" width="200mm" height="200mm" xmlns:xlink="http://www.w3.org/1999/xlink" viewBox="0 0 566.929 566.929">
  <defs>
    <filter id="d" data-name="drop-shadow-1" x="-249.664" y="28.346" width="812.17" height="517.819" filterUnits="userSpaceOnUse">
      <feOffset dx=".567" dy=".567"/>
      <feGaussianBlur result="e" stdDeviation=".567"/>
      <feFlood flood-color="#000" flood-opacity=".2"/>
      <feComposite in2="e" operator="in"/>
      <feComposite in="SourceGraphic"/>
    </filter>
    <clipPath id="g">
      <path d="M281.825,537.918l111.66-117.366,124.497-236.448-58.871-103.265-103.265-18.337-78.708,34.898-95.009-35.864-97.649,28.31-35.534,117.419,48.255,139.938,40.534,72.382,144.09,118.331Z" fill="none"/>
    </clipPath>
    <filter id="h" data-name="drop-shadow-2" x="431.748" y="47.223" width="102.24" height="48.24" filterUnits="userSpaceOnUse">
      <feOffset dx=".567" dy=".567"/>
      <feGaussianBlur result="i" stdDeviation=".567"/>
      <feFlood flood-color="#000" flood-opacity=".2"/>
      <feComposite in2="i" operator="in"/>
      <feComposite in="SourceGraphic"/>
    </filter>
    <filter id="j" data-name="drop-shadow-3" x="27.828" y="304.263" width="80.64" height="38.4" filterUnits="userSpaceOnUse">
      <feOffset dx=".567" dy=".567"/>
      <feGaussianBlur result="k" stdDeviation=".567"/>
      <feFlood flood-color="#000" flood-opacity=".2"/>
      <feComposite in2="k" operator="in"/>
      <feComposite in="SourceGraphic"/>
    </filter>
    <filter id="l" data-name="drop-shadow-4" x="507.828" y="99.063" width="37.2" height="18.72" filterUnits="userSpaceOnUse">
      <feOffset dx=".567" dy=".567"/>
      <feGaussianBlur result="m" stdDeviation=".567"/>
      <feFlood flood-color="#000" flood-opacity=".2"/>
      <feComposite in2="m" operator="in"/>
      <feComposite in="SourceGraphic"/>
    </filter>
    <filter id="n" data-name="drop-shadow-5" x="81.828" y="39.303" width="59.52" height="80.16" filterUnits="userSpaceOnUse">
      <feOffset dx=".567" dy=".567"/>
      <feGaussianBlur result="o" stdDeviation=".567"/>
      <feFlood flood-color="#000" flood-opacity=".2"/>
      <feComposite in2="o" operator="in"/>
      <feComposite in="SourceGraphic"/>
    </filter>
    <filter id="p" data-name="drop-shadow-6" x="446.868" y="278.823" width="60.96" height="83.04" filterUnits="userSpaceOnUse">
      <feOffset dx=".567" dy=".567"/>
      <feGaussianBlur result="q" stdDeviation=".567"/>
      <feFlood flood-color="#000" flood-opacity=".2"/>
      <feComposite in2="q" operator="in"/>
      <feComposite in="SourceGraphic"/>
    </filter>
  </defs>
  <g id="b" data-name="FP Birthday 02 Right">
    <g filter="url(#h)">
      <path d="M439.116,62.303c-1.812,1.277-4.136,3.886-4.136,3.886,0,0-2.383,4.838-1.932,8.033.461,3.262,4.229,7.301,4.229,7.301l4.992,5.029,13.596,4.892,14.684,1.338,29.576-5.553s7.189.957,11.819.935c4.628-.021,11.805-1.044,11.805-1.044,0,0,9.321-8.834,7.333-17.468,0,0-6.885-9.717-13.611-11.551-4.069-1.11-10.801-.076-10.801-.076l-11.456,3.439s-.86-8.43-1.63-9.108c-.77-.679-11.655-6.155-23.056-2.974l-4.118,1.416-4.596,4.275s-3.243,4.818-4.206,4.695c-8.839-1.123-12.534-1.663-18.49,2.535Z" fill="#f7e9e1"/>
    </g>
    <g filter="url(#j)">
      <path d="M33.832,316.349c-1.417.999-3.234,3.039-3.234,3.039,0,0-1.864,3.784-1.511,6.282.36,2.551,3.307,5.709,3.307,5.709l3.904,3.933,10.633,3.826,11.484,1.046,23.13-4.343s5.622.748,9.243.731c3.619-.017,9.232-.817,9.232-.817,0,0,7.29-6.909,5.735-13.661,0,0-5.385-7.599-10.645-9.034-3.183-.868-8.447-.06-8.447-.06l-8.959,2.69s-.673-6.593-1.275-7.123c-.602-.531-9.115-4.814-18.031-2.326l-3.221,1.108-3.594,3.344s-2.536,3.768-3.29,3.672c-6.912-.878-9.802-1.3-14.46,1.983Z" fill="#f7e9e1"/>
    </g>
    <g filter="url(#l)">
      <path d="M511.157,105.031c-.611.439-1.391,1.331-1.391,1.331,0,0-.794,1.648-.632,2.731.166,1.105,1.456,2.464,1.456,2.464l1.708,1.691,4.627,1.619,4.986.41,10.017-1.971s2.442.303,4.012.282c1.57-.021,4.002-.389,4.002-.389,0,0,3.136-3.025,2.436-5.948,0,0-2.365-3.276-4.652-3.878-1.384-.364-3.664.006-3.664.006l-3.876,1.201s-.317-2.857-.58-3.085c-.263-.228-3.972-2.054-7.831-.941l-1.393.493-1.546,1.464s-1.086,1.644-1.413,1.605c-3.002-.355-4.257-.527-6.265.915Z" fill="#f7e9e1"/>
    </g>
    <g filter="url(#n)">
      <path d="M87.885,95.789l14.753,9.41-4.879,4.298-5.46,4.182h5.46l3.369,2.788,2.323-2.788c1.471.349,4.414,1.394,4.414,2.788s4.182-.581,6.273-1.743l-6.273-9.526h8.016c1.859,0,12.895-13.592,14.87-15.451,1.975-1.859,9.294-9.99,7.783-23.234-1.51-13.243-2.323-10.688-2.904-13.243s-4.879-8.016-6.854-9.991c-1.975-1.975-3.834-.929-17.658-2.556-11.059-1.301-20.097,4.569-23.234,7.667l-4.879,18.122v13.243l4.879,16.031Z" fill="#e97f91"/>
    </g>
    <g filter="url(#p)">
      <path d="M465.194,344.155l17.147,3.49-3.012,5.762-3.596,5.863,5.096-1.959,4.145,1.394,1.168-3.436c1.499-.203,4.621-.283,5.121,1.019s3.695-2.043,5.23-3.877l-9.273-6.641,7.482-2.876c1.735-.667,7.16-17.313,8.337-19.757s5.091-12.66-1.07-24.479c-6.161-11.82-6.003-9.143-7.462-11.32-1.459-2.177-7.43-5.732-9.982-6.866-2.552-1.135-3.912.508-17.399,3.95-10.79,2.753-17.12,11.475-18.936,15.492l1.947,18.666,4.751,12.362,10.306,13.214Z" fill="#e7c979"/>
    </g>
  </g>
</svg>